<?xml version="1.0" encoding="UTF-8"?>
<svg version="1.1" xmlns="http://www.w3.org/2000/svg" width="512" height="512">
<path d="M0 0 C8.5029552 7.09398767 16.15421868 17.689603 17.18212891 29.00488281 C17.22128418 29.71741211 17.26043945 30.42994141 17.30078125 31.1640625 C17.52279716 39.57486195 17.52279716 39.57486195 21.3203125 46.7734375 C23.2269671 48.25408208 25.1805096 49.67628497 27.17578125 51.03515625 C35.75841323 57.00619897 41.84001076 68.18791902 43.71875 78.39453125 C45.3297065 93.31825328 43.33210218 107.53696181 33.95703125 119.63671875 C25.38627144 129.50563151 15.28925327 137.04745604 2 139 C-12.44629597 139.97480537 -25.09643457 137.80670288 -37 129 C-38.72931141 127.4819022 -40.43738487 125.93931904 -42.125 124.375 C-48.80248478 118.13319358 -48.80248478 118.13319358 -57.40234375 115.921875 C-61.46374756 116.24728794 -65.30947638 117.06091979 -69.25 118.0625 C-82.23425201 121.08528883 -95.88522989 118.83654858 -107.5546875 112.5703125 C-115.4059639 107.52843852 -121.46703394 101.12512784 -126 93 C-126.38929688 92.32710938 -126.77859375 91.65421875 -127.1796875 90.9609375 C-133.29215775 79.04831301 -132.68464716 65.61359364 -129.1796875 53.0625 C-127.06231049 46.65698972 -124.02258356 41.38814483 -120 36 C-119.278125 34.96875 -118.55625 33.9375 -117.8125 32.875 C-111.27934383 25.33674288 -99.96438431 19.44969564 -90.0625 18.703125 C-89.01799683 18.6417334 -89.01799683 18.6417334 -87.95239258 18.57910156 C-81.25382968 18.27288586 -81.25382968 18.27288586 -75.76953125 14.75 C-74.65866078 12.85017403 -73.60589637 10.91534749 -72.609375 8.953125 C-67.43128062 -0.54842683 -57.72743211 -5.27809018 -48 -9 C-47.32582031 -9.26683594 -46.65164063 -9.53367188 -45.95703125 -9.80859375 C-30.13373383 -14.87344612 -12.74858127 -9.67909942 0 0 Z " fill="#A75D30" transform="translate(393,148)"/>
<path d="M0 0 C1.9140625 1.31640625 1.9140625 1.31640625 3.703125 3.3515625 C6.46942008 6.4760432 8.77591934 9.00667749 13.07470703 9.62939453 C17.3985883 9.80179533 21.69846267 9.59188794 26.01953125 9.41796875 C37.41492885 9.00374921 48.31444935 13.33591568 57.1015625 20.50390625 C67.26350949 30.0089193 72.63758034 42.09931277 73.1640625 55.94140625 C72.99067129 68.77235591 68.10326675 80.80962705 59.34765625 90.14453125 C47.95475119 100.31219612 36.25469259 103.61547047 21.46679688 104.40039062 C15.88845692 104.80144775 12.26815006 105.48666765 7.9140625 109.31640625 C6.0579016 111.73379019 6.0579016 111.73379019 4.6015625 114.44140625 C-2.93066835 126.81342577 -12.19078093 134.98840666 -26.0859375 139.31640625 C-40.37744035 142.17470682 -53.9015078 139.30267508 -66.0859375 131.31640625 C-75.84629184 124.19358278 -82.04816162 113.28706311 -84.3984375 101.56640625 C-86.38989025 87.28225877 -83.31826047 74.80923249 -74.8359375 63.12890625 C-73.58624123 61.52450296 -72.33631518 59.92027855 -71.0859375 58.31640625 C-69.77422452 55.69298029 -70.34026818 54.63838673 -71.0234375 51.81640625 C-73.78121937 38.63194223 -71.28993728 25.75252079 -64.0859375 14.31640625 C-49.18955212 -6.31457852 -22.33171941 -11.34380169 0 0 Z " fill="#A75D30" transform="translate(169.0859375,347.68359375)"/>
<path d="M0 0 C0.69996094 0.10828125 1.39992188 0.2165625 2.12109375 0.328125 C9.96515905 1.92955988 15.5276797 6.4899953 20 13 C21.96805413 16.87508332 22.95035112 20.28009126 23.25 24.625 C24.07438715 28.33474217 24.41570842 28.63180583 27.25 30.8125 C32.95083968 35.30264589 35.57856965 40.49917072 36.4453125 47.69921875 C36.65826934 54.83327291 36.69254837 61.32151727 32 67 C26.77168005 72.4526695 22.25764089 76.54244809 14.546875 77.37109375 C5.22511308 77.53412868 -0.76037848 76.37638886 -8.0390625 70.296875 C-12.31186768 66.65112919 -12.31186768 66.65112919 -17.8125 66.125 C-18.47121094 66.26550781 -19.12992187 66.40601563 -19.80859375 66.55078125 C-29.47857521 68.53304126 -37.41773887 66.29860885 -45.75 61.375 C-52.16054743 54.60831105 -55.45834348 47.24660167 -55.3359375 37.98046875 C-54.45051756 30.12494069 -50.17117343 24.24494588 -44.109375 19.40234375 C-39.70981044 16.47744805 -35.64458055 15.08506451 -30.375 14.8125 C-26.5003055 13.87970318 -26.3646994 13.4715708 -24.3125 10.3125 C-18.97137988 2.38650624 -9.35442762 -1.46873256 0 0 Z " fill="#8C5230" transform="translate(361,171)"/>
<path d="M0 0 C9.00336852 5.25442491 13.77811107 14.09682464 16.5 23.9375 C19.48923298 39.18258818 16.57562817 55.21292222 8.0078125 68.19921875 C2.99737381 75.18381646 -3.26528542 80.23719478 -11.5 82.9375 C-20.49423552 83.98078739 -28.08052874 83.36248974 -35.5 77.9375 C-43.53471608 71.25765761 -47.1635825 61.08887331 -48.5 50.9375 C-49.8984758 35.39378533 -45.22811012 20.16871131 -35.49609375 8.05078125 C-26.28439543 -1.70172128 -12.5915485 -5.80854437 0 0 Z " fill="#8C512F" transform="translate(360.5,27.0625)"/>
<path d="M0 0 C8.4251676 4.96656021 12.41824223 12.35435739 14.90234375 21.61328125 C17.69470763 36.20296946 14.51509115 50.75970654 6.60546875 63.2734375 C-0.31145968 72.71643348 -8.5998449 80.14953494 -20.4375 82.0625 C-28.57637674 82.60509178 -35.20742468 81.1645713 -41.6875 76 C-49.54671181 68.547839 -52.28188074 58.3646884 -52.75 47.8125 C-52.26304205 32.41921811 -46.39315256 18.192908 -35.703125 7.12109375 C-25.98860313 -1.70572181 -12.48819085 -5.54605719 0 0 Z " fill="#8C512F" transform="translate(451.4375,55.9375)"/>
<path d="M0 0 C9.74581642 7.80358966 15.81404302 18.76846544 18 31 C19.30467055 44.98741218 18.97645932 58.95761846 9.63671875 70.25 C4.32084603 75.93379708 -0.08941246 79.40798754 -8.078125 80.37109375 C-15.97824693 80.53649039 -21.40143527 79.39125724 -28 75 C-28.63550781 74.5771875 -29.27101562 74.154375 -29.92578125 73.71875 C-39.50803974 66.40988765 -45.19606718 53.70027457 -47 42 C-47.79574534 28.74627441 -47.65242885 15.38638099 -38.62109375 4.7109375 C-38.08613281 4.14632812 -37.55117187 3.58171875 -37 3 C-36.21302734 2.15308594 -36.21302734 2.15308594 -35.41015625 1.2890625 C-25.11496416 -8.64276987 -11.33125968 -7.46748589 0 0 Z " fill="#8C5130" transform="translate(284,79)"/>
<path d="M0 0 C6.89494396 7.08647018 8.55421186 14.7279274 8.56469727 24.32324219 C8.28854064 37.95132632 1.56690728 49.07770073 -7.6875 58.6875 C-16.66502954 67.20671722 -26.85692805 72.35989119 -39.5 72.75 C-47.22097405 72.40210727 -53.52832129 70.36901736 -59.24609375 65.0625 C-66.13615605 57.04497295 -66.3632925 47.46724224 -65.92919922 37.40966797 C-64.90177946 25.38577732 -56.37139332 13.29691752 -47.75 5.3125 C-32.80224547 -5.77985387 -16.59840676 -10.18538597 0 0 Z " fill="#8C512F" transform="translate(503.75,139.6875)"/>
<path d="M0 0 C1.64453125 1.38671875 1.64453125 1.38671875 2.64453125 4.38671875 C3.61132812 4.32871094 4.578125 4.27070313 5.57421875 4.2109375 C13.89487027 3.92259809 20.80518149 4.06864492 27.64453125 9.38671875 C32.86623791 14.79374694 35.90952055 20.47360044 36.08203125 28.07421875 C35.93037029 35.32718093 33.94033243 41.06333764 28.77734375 46.26953125 C22.69120161 51.17159904 16.4098712 52.49930561 8.7578125 53.04296875 C6.30781713 53.44148925 4.72909477 54.03132354 2.64453125 55.38671875 C1.19985542 57.35117769 1.19985542 57.35117769 -0.04296875 59.63671875 C-3.74479464 65.49164745 -8.79079873 69.19849541 -15.35546875 71.38671875 C-23.29502935 72.26641761 -29.50391797 71.89008256 -36.19140625 67.3046875 C-41.45746148 62.6374797 -44.84328421 57.17270546 -45.59375 50.16015625 C-45.79768412 43.56986423 -44.54102656 38.19317028 -41.35546875 32.38671875 C-40.81535156 31.93554688 -40.27523437 31.484375 -39.71875 31.01953125 C-37.54773031 28.41928417 -38.18438254 25.99619257 -38.35546875 22.69921875 C-38.50656713 14.97729651 -37.55934955 10.57010213 -33.10546875 4.13671875 C-24.01852055 -4.95022945 -11.05285915 -6.63171549 0 0 Z " fill="#8C5230" transform="translate(163.35546875,376.61328125)"/>
<path d="M0 0 C9.56325663 8.65122943 12.97735574 20.80521881 14.28125 33.20703125 C14.66747209 45.48567526 11.16733147 58.1532337 2.75 67.328125 C-3.44021032 72.82460486 -9.97431508 74.73802908 -18.16796875 74.359375 C-25.01959086 73.36075801 -31.44275825 70.16993959 -36.0625 64.9375 C-45.49885619 52.21363907 -48.16515768 39.66978489 -47.0625 23.9375 C-45.03831974 13.42332938 -40.56684093 3.90348765 -32.0390625 -2.83984375 C-20.71971309 -9.8417338 -10.31249837 -6.94515196 0 0 Z " fill="#8C512F" transform="translate(227.0625,270.0625)"/>
<path d="M0 0 C9.18663607 7.96632173 17.26386552 17.6473013 18.60546875 30.18359375 C18.83730927 37.67570305 17.53082049 44.15781511 12.63671875 50.03515625 C6.06418838 56.27971605 -0.45446642 58.07778283 -9.3828125 58.39453125 C-23.31893138 58.03450234 -34.96731691 52.57207752 -45.0078125 43.01953125 C-53.49015922 33.99944884 -57.32458126 24.53654491 -56.9765625 12.109375 C-56.27566146 5.68179385 -54.08477888 0.97092032 -49.3203125 -3.41796875 C-34.68112732 -14.73434102 -13.86485052 -10.7586303 0 0 Z " fill="#8C512F" transform="translate(56.6328125,378.04296875)"/>
<path d="M0 0 C13.08052745 7.79590701 21.27157164 18.67360633 26.2265625 32.94921875 C28.44474944 41.79050285 28.18196925 51.05630145 24.33984375 59.39453125 C20.65891264 65.04252078 15.99104321 69.71081566 9.33984375 71.39453125 C-1.85247012 72.73607572 -11.2562258 71.15147384 -20.37890625 64.375 C-30.26625098 55.87247916 -38.2316178 45.51845115 -40.66015625 32.39453125 C-41.42182569 21.78110461 -40.39253331 13.85441462 -35.03515625 4.58203125 C-25.45416758 -4.24256358 -11.73688168 -5.52668472 0 0 Z " fill="#8C512F" transform="translate(61.66015625,285.60546875)"/>
<path d="M0 0 C12.58289034 7.18544867 20.23838057 17.61729039 24.625 31.4375 C27.27024411 42.00084147 26.60003197 54.01219276 21.44140625 63.6484375 C17.74368859 69.28405252 13.05147492 72.47335203 6.625 74.4375 C-3.26923328 75.91249784 -11.47636786 73.36796903 -19.5625 67.6875 C-29.78954725 59.41532093 -36.59245749 48.06322956 -39 35.0625 C-39.9886666 25.50538953 -39.11641282 16.72451044 -34.625 8.0625 C-25.36712223 -2.7383574 -13.48451927 -6.42527919 0 0 Z " fill="#8C512F" transform="translate(138.375,244.5625)"/>
</svg>
